<?xml version="1.0" encoding="UTF-8"?>
<svg xmlns="http://www.w3.org/2000/svg" version="1.1" viewBox="0 0 512 512">
  <!-- Generator: Adobe Illustrator 28.6.0, SVG Export Plug-In . SVG Version: 1.2.0 Build 709)  -->
  <g>
    <g id="Lager_1">
      <path d="M256,21c31.7,0,62.5,6.2,91.5,18.5,28,11.8,53.1,28.8,74.7,50.4,21.6,21.6,38.5,46.7,50.4,74.7,12.2,29,18.5,59.7,18.5,91.5v2.6c-.2,14-7.7,23.1-14,28.3-9.2,7.7-22,12.1-35.1,12.1h-97.9c-38,0-69,31-69,69s.4,8.9,1.4,13.8v.2s0,.2,0,.2c2.4,11.8,7,22.3,11.4,32.4l.7,1.6h0c0,0,0,.1,0,.1,5.3,12,10.3,23.3,10.3,33.5s-3.6,21.4-10,29.1c-4.3,5.2-11.7,11.4-23.2,11.9-3.4,0-6.6.2-9.9.2-31.7,0-62.5-6.2-91.4-18.5-28-11.8-53.1-28.8-74.7-50.4-21.6-21.6-38.5-46.7-50.4-74.7-12.2-29-18.5-59.7-18.5-91.5s6.2-62.5,18.5-91.5c11.8-28,28.8-53.1,50.4-74.7,21.6-21.6,46.7-38.5,74.7-50.4,29-12.2,59.7-18.5,91.5-18.5M256,0C114.6,0,0,114.6,0,256s114.6,256,255.9,256,7.1-.1,10.6-.2c31.8-1.3,53.4-30.2,53.4-62s-6-28.2-12.1-42c-4.3-9.9-8.7-19.7-10.8-29.9-.6-3.2-1-6.5-1-9.9,0-26.5,21.5-48,48-48h97.9c36.5,0,69.7-24.8,70.1-61.3v-2.7C512,114.6,397.4,0,256,0h0Z"/>
      <circle cx="96" cy="288" r="32"/>
      <circle cx="128" cy="160" r="32"/>
      <circle cx="256" cy="96" r="32"/>
      <circle cx="384" cy="160" r="32"/>
    </g>
  </g>
</svg>